<svg xmlns="http://www.w3.org/2000/svg" viewBox="0 0 110.188 104.763">
    <g transform="translate(5.1165302 -1.350928)">
        <g transform="matrix(1.9875897 -0.92682836 0.92682836 1.9875897 -355.16738 -628.39637)" style="opacity: 0.05">
            <path d="m20.143 363.932 0.08-8.08q0-9.48-0.92-10.72-0.44-0.56-0.44-0.76 0-0.24 0.52-0.52 0.56-0.32 2.12-0.68 1.56-0.36 2.76-0.36 1.2 0 1.2 0.56l-0.08 0.52q-0.48 4.32-0.48 8.44 0 4.12 0.24 9.2 0.24 5.08 0.24 7.48 0 3.24-2.52 5.56-2.48 2.36-5.92 2.56-0.68-0.08-0.68-0.48 0-0.28 0.2-0.44 0.16-0.16 0.4-0.4 0.24-0.24 0.88-1.24 0.64-1 1.12-2.28 0.48-1.24 0.88-3.48 0.4-2.24 0.4-4.88z"/>
            <path d="m40.906 349.172 0.16-1.24q0-1.84-1.44-2.36-1.12-0.36-1.72-0.36h-0.04q-1.2 0-2.08 0.4-0.88 0.36-1.28 0.92-0.84 1.16-0.96 2.44 0 1.52 1.36 2.64 1.36 1.08 3.28 1.92 1.96 0.8 3.88 1.76 1.96 0.96 3.32 2.76 1.36 1.8 1.36 4.32 0 4.92-3.12 7.36-3.08 2.44-7.04 2.44-3.92 0-6.52-1.76-2.56-1.8-2.56-4.8v-0.04q0-1.48 0.44-2.56 0.48-1.12 1.12-1.64 1.32-1.08 2.4-1.16l0.48-0.04q1.12 0 2.04 0.56 0.92 0.52 0.92 1.48 0 0.48-0.52 0.8-0.52 0.32-0.92 0.96-0.36 0.64-0.4 1.08l-0.08 0.44q0 2.44 2.24 3.24 0.8 0.28 1.28 0.28 2.2 0 3.52-1.32 1.36-1.32 1.36-3.36 0-2.44-2.08-3.96-1.56-1.12-3.4-1.88-1.8-0.76-2.44-1.08-0.64-0.32-1.36-0.76-0.72-0.44-1.6-1.24-1.92-1.68-1.92-4.52 0-2.88 1.56-4.84 2.8-3.56 8.4-3.56 2.96 0 5 1.16 2.04 1.12 2.04 3.12 0 1.44-0.84 2.4-0.8 0.96-2.08 0.96-0.6 0-1.2-0.24-0.56-0.24-0.56-0.72z"/>
            <path d="m50.377 363.932 0.08-8.08q0-9.48-0.92-10.72-0.44-0.56-0.44-0.76 0-0.24 0.52-0.52 0.56-0.32 2.12-0.68 1.56-0.36 2.76-0.36 1.2 0 1.2 0.56l-0.08 0.52q-0.48 4.32-0.48 8.44 0 4.12 0.24 9.2 0.24 5.08 0.24 7.48 0 3.24-2.52 5.56-2.48 2.36-5.92 2.56-0.68-0.08-0.68-0.48 0-0.28 0.2-0.44 0.16-0.16 0.4-0.4 0.24-0.24 0.88-1.24 0.64-1 1.12-2.28 0.48-1.24 0.88-3.48 0.4-2.24 0.4-4.88z"/>
        </g>
    </g>
</svg>
